<?xml version="1.0" encoding="UTF-8" standalone="no"?>
<!DOCTYPE svg PUBLIC "-//W3C//DTD SVG 1.1//EN" "http://www.w3.org/Graphics/SVG/1.1/DTD/svg11.dtd">
<!-- Created with Vectornator (http://vectornator.io/) -->
<svg height="100%" stroke-miterlimit="10" style="fill-rule:nonzero;clip-rule:evenodd;stroke-linecap:round;stroke-linejoin:round;" version="1.1" viewBox="0 0 24 24" width="100%" xml:space="preserve" xmlns="http://www.w3.org/2000/svg" xmlns:vectornator="http://vectornator.io" xmlns:xlink="http://www.w3.org/1999/xlink">
<defs>
<linearGradient gradientTransform="matrix(1 0 0 1 0 0)" gradientUnits="userSpaceOnUse" id="LinearGradient" x1="12.8753" x2="28.6228" y1="20.6491" y2="-5.05018">
<stop offset="0.0764463" stop-color="#31652a"/>
<stop offset="0.272727" stop-color="#3f942c"/>
<stop offset="0.365702" stop-color="#42b427"/>
<stop offset="0.615702" stop-color="#57d430"/>
</linearGradient>
</defs>
<g id="Capa-1" vectornator:layerName="Capa 1">
<path d="M21.4595 6.4215L4.7216 6.4215C3.42478 6.4215 2.88843 5.81523 2.67964 5.45224L20.7527 3.5482L20.7527 2.84137C20.7527 1.64511 19.7825 0.674895 18.5862 0.674895L2.80606 3.6095C1.492 3.84702 0.639591 4.57971 0.639591 5.77597L0.639591 21.4948C0.639591 22.6911 1.60981 23.6613 2.80606 23.6613L21.4605 23.6613C22.6558 23.6613 23.626 22.6911 23.626 21.4948L23.626 8.58797C23.626 7.39172 22.6558 6.4215 21.4595 6.4215ZM19.7949 16.9569C18.7366 16.9569 17.8794 16.0997 17.8794 15.0414C17.8794 13.9831 18.7366 13.1259 19.7949 13.1259C20.8533 13.1259 21.7105 13.9831 21.7105 15.0414C21.7105 16.0997 20.8533 16.9569 19.7949 16.9569Z" fill="url(#LinearGradient)" fill-rule="nonzero" opacity="1" stroke="none"/>
</g>
</svg>
